# xmcd
#
# Track frame offsets: 
#        150
#        17240
#        30200
#        42497
#        57322
#        67215
#        79717
#        92070
#        106522
#        123010
#        136110
#        148422
#
# Disc length: 2212 seconds
#
# Revision: 2
# Processed by: cddbd v1.5.1PL0 Copyright (c) Steve Scherf et al.
# Submitted via: ExactAudioCopy v0.95a5
#
DISCID=9c08a20c
DTITLE=Merle Haggard - Greatest Hits - Finest Performances
DYEAR=1995
DGENRE=Country
TTITLE0=Today I Started Loving You Again
TTITLE1=Swinging Doors
TTITLE2=Workin' Man Blues
TTITLE3=I'm a Lonesome Fugitive
TTITLE4=Mama Tried
TTITLE5=The Bottle Let Me Down
TTITLE6=Okie From Muskogee
TTITLE7=Branded Man
TTITLE8=Hungry Eyes
TTITLE9=The Fightin' Side Of Me
TTITLE10=I Take A Lot Of Pride In What I Am
TTITLE11=I Think I'll Just Sit Here And Drink
EXTD=
EXTT0=
EXTT1=
EXTT2=
EXTT3=
EXTT4=
EXTT5=
EXTT6=
EXTT7=
EXTT8=
EXTT9=
EXTT10=
EXTT11=
PLAYORDER=
